<svg width="71" height="70" viewBox="0 0 71 70" fill="none" xmlns="http://www.w3.org/2000/svg">
<path d="M30.7189 48.125L47.9845 37.1875C48.8109 36.6625 49.2241 35.9333 49.2241 35C49.2241 34.0667 48.8109 33.3375 47.9845 32.8125L30.7189 21.875C29.8335 21.2917 28.9327 21.2473 28.0166 21.742C27.1005 22.2367 26.6436 23.0102 26.646 24.0625V45.9375C26.646 46.9875 27.104 47.761 28.0202 48.258C28.9363 48.755 29.8359 48.7107 30.7189 48.125ZM35.5002 70C30.6009 70 25.9967 69.0807 21.6877 67.242C17.3786 65.4033 13.6304 62.9102 10.4429 59.7625C7.25537 56.6125 4.73252 52.9083 2.87433 48.65C1.01614 44.3917 0.0858572 39.8417 0.0834961 35C0.0834961 30.1583 1.01377 25.6083 2.87433 21.35C4.73489 17.0917 7.25773 13.3875 10.4429 10.2375C13.6304 7.0875 17.3786 4.59433 21.6877 2.758C25.9967 0.921667 30.6009 0.00233333 35.5002 0C40.3995 0 45.0036 0.919334 49.3127 2.758C53.6217 4.59667 57.37 7.08983 60.5575 10.2375C63.745 13.3875 66.269 17.0917 68.1295 21.35C69.9901 25.6083 70.9192 30.1583 70.9168 35C70.9168 39.8417 69.9865 44.3917 68.126 48.65C66.2654 52.9083 63.7426 56.6125 60.5575 59.7625C57.37 62.9125 53.6217 65.4068 49.3127 67.2455C45.0036 69.0842 40.3995 70.0023 35.5002 70ZM35.5002 63C43.4099 63 50.1095 60.2875 55.5991 54.8625C61.0887 49.4375 63.8335 42.8167 63.8335 35C63.8335 27.1833 61.0887 20.5625 55.5991 15.1375C50.1095 9.7125 43.4099 7 35.5002 7C27.5904 7 20.8908 9.7125 15.4012 15.1375C9.91162 20.5625 7.16683 27.1833 7.16683 35C7.16683 42.8167 9.91162 49.4375 15.4012 54.8625C20.8908 60.2875 27.5904 63 35.5002 63Z" fill="#971C1C"/>
</svg>
