<svg width="257" height="57" viewBox="0 0 257 57" fill="none" xmlns="http://www.w3.org/2000/svg">
<path d="M74.2637 2.25849V0H58.35V2.25849H66.0362L54.3446 42.9113L43.1942 2.25849H50.1226V0H29.7704V2.25849H36.0493L24.4659 42.9113L13.3155 2.25849H20.2439V0H0V2.25849H5.08804L20.1356 57H22.7338L36.8071 7.85094L37.1318 6.02264L50.0143 57H52.5042L68.3096 2.25849H74.2637ZM80.1095 13.766C71.8821 13.766 67.0105 18.8208 67.0105 28.2849V36.3509C67.0105 45.7075 71.8821 50.8698 80.1095 50.8698C88.337 50.8698 93.1003 45.8151 93.2085 36.3509V28.2849C93.1003 18.9283 88.337 13.766 80.1095 13.766ZM86.7131 40.4377C86.7131 48.1811 84.548 49.3642 80.0013 49.3642C75.5628 49.3642 73.2894 48.1811 73.2894 40.6528V24.0906C73.2894 16.4547 75.5628 15.3792 80.0013 15.3792C84.548 15.3792 86.7131 16.5623 86.7131 24.3057V40.4377ZM154.265 13.1208H152.208L141.058 48.6113H137.594V50.117H148.094V48.6113H143.115L146.579 37.8566H156.105L159.136 48.6113H155.131V50.117H167.797V48.6113H164.333L154.265 13.1208ZM146.904 36.3509L151.342 22.2623H151.667L155.564 36.3509H146.904ZM132.072 48.5038V15.3792H135.537V13.8736H125.794L115.509 42.5887L105.766 13.8736H96.1314V15.3792H99.4874V48.5038H96.2397V50.0094H106.416V48.5038H101.652V17.1L113.128 51.1924H114.751L126.768 17.4226V48.5038H123.087V50.0094H135.97V48.5038C135.861 48.5038 134.129 48.5038 132.072 48.5038ZM187.391 15.3792H192.588V39.2547L177.432 13.8736H168.555V15.3792H171.694V48.5038H168.555V50.0094H178.623V48.5038H173.318V18.4981L192.588 50.7623H194.211V15.2717H197.676V13.766H187.391V15.3792ZM201.573 40.1151C199.624 40.1151 198.109 41.8358 198.109 43.9868C198.109 46.1377 199.624 47.8585 201.573 47.8585C203.521 47.8585 205.037 46.1377 205.037 43.9868C205.037 41.8358 203.413 40.1151 201.573 40.1151ZM226.58 20.5415C226.58 20.434 226.472 20.434 226.472 20.3264C226.255 20.1113 226.147 19.8962 225.931 19.7887C225.497 19.466 224.74 19.2509 223.765 19.2509C221.167 19.2509 219.868 20.5415 218.786 22.2623C218.028 23.4453 217.27 24.9509 216.729 25.8113C216.729 25.2736 216.62 24.3057 215.971 22.8C215.213 20.7566 214.455 20.0038 214.347 20.0038H208.177V21.5094H212.074V45.3849H208.177V46.8906H222.25V45.3849H216.62V28.9302C217.27 27.4245 218.136 25.4887 219.543 23.4453C220.951 21.7245 221.709 21.1868 222.466 21.1868C222.791 21.1868 222.791 22.8 222.791 23.5528C222.791 23.6604 222.791 23.7679 222.791 23.8755C222.791 23.983 222.791 23.983 222.791 23.983C222.791 27.4245 223.874 28.3925 225.064 28.3925C226.364 28.3925 227.338 27.5321 227.338 23.983C227.554 22.6925 227.23 21.4019 226.58 20.5415ZM253.861 45.4925C253.211 45.4925 253.103 44.7396 253.103 44.7396V20.0038H248.448V40.3302C248.34 40.4377 245.417 46.1377 241.195 46.1377C239.029 46.1377 238.38 44.9547 238.38 43.6641V20.0038H229.719V21.5094H233.833V41.2981C233.833 41.2981 233.617 47.6434 240.653 47.6434C245.417 47.6434 248.015 43.3415 248.556 42.5887V42.6962C248.448 45.1698 249.314 46.783 250.613 46.783H257.108V45.2774L253.861 45.4925Z" fill="white"/>
</svg>
